<svg width="1024.000000pt" height="1024.000000pt" viewBox="0 0 1024.000000 1024.000000" xmlns="http://www.w3.org/2000/svg">
  <g transform="translate(0.000000,1024.000000) scale(0.100000,-0.100000)" fill="#fdfef9" stroke="none">
    <path d="M0 5120 c0 -5120 0 -5120 5120 -5120 5120 0 5120 0 5120 5120 0 5120
0 5120 -5120 5120 -5120 0 -5120 0 -5120 -5120z m5154 4168 c13 -18 16 -55 16
-193 0 -171 0 -171 43 -261 133 -273 131 -376 -14 -643 -27 -51 -29 -62 -29
-168 0 -133 16 -152 46 -55 53 175 136 281 326 417 174 124 185 118 175 -91
-13 -269 -125 -466 -333 -585 -160 -91 -208 -178 -212 -382 -5 -179 10 -196
58 -67 68 188 174 298 437 454 91 53 67 -303 -33 -494 -47 -90 -112 -161 -208
-228 -205 -142 -250 -217 -254 -420 -4 -162 13 -191 48 -87 63 184 174 304
427 461 66 41 82 4 73 -161 -15 -267 -103 -422 -330 -585 -182 -129 -213 -182
-218 -373 -5 -148 12 -172 48 -69 57 161 158 280 344 401 124 80 117 78 141
51 27 -29 16 -242 -19 -356 -62 -206 -151 -306 -373 -418 -86 -43 -93 -48 -93
-76 0 -20 -5 -30 -15 -30 -25 0 -17 -29 10 -36 165 -41 564 120 802 324 675
578 597 1757 -145 2188 -1 0 4 30 13 65 8 35 15 100 15 145 0 81 0 81 62 130
35 27 105 84 157 127 122 102 106 106 336 -93 245 -213 237 -188 120 -363 -88
-132 -90 -143 -33 -234 48 -78 108 -203 153 -317 41 -106 50 -111 213 -130
227 -27 216 -14 243 -308 34 -364 54 -336 -298 -415 -38 -8 -53 -38 -93 -175
-21 -73 -57 -176 -80 -228 -77 -177 -82 -153 64 -335 134 -167 142 -138 -105
-393 -252 -260 -209 -248 -409 -117 -132 86 -152 90 -226 44 -91 -59 -227
-122 -353 -165 -146 -50 -145 -49 -161 -157 -40 -284 -34 -280 -396 -275 -317
4 -300 -9 -341 252 -20 135 -15 129 -168 180 -134 44 -228 87 -340 156 -92 56
-104 54 -248 -39 -192 -123 -177 -123 -282 -5 -38 44 -122 133 -187 199 -169
174 -168 153 -17 342 114 142 118 156 70 251 -38 76 -94 237 -116 335 -25 112
-26 112 -205 158 -223 56 -215 39 -185 396 24 288 14 275 249 299 170 17 174
19 219 131 58 144 95 222 147 309 62 102 62 106 -4 201 -150 215 -155 190 80
396 252 219 212 215 414 50 145 -119 145 -119 151 -223 4 -58 12 -125 18 -149
12 -40 11 -44 -11 -59 -795 -558 -789 -1738 13 -2274 220 -147 513 -243 673
-222 53 8 65 34 16 34 -27 0 -29 2 -24 28 5 27 2 30 -82 67 -297 133 -424 330
-424 659 0 151 8 164 74 127 238 -137 358 -268 421 -458 35 -108 61 -56 50
100 -11 165 -64 248 -229 364 -219 154 -302 302 -316 568 -10 193 3 211 104
148 234 -142 334 -256 395 -445 9 -28 18 -38 33 -38 35 0 22 237 -16 306 -58
103 -85 130 -271 268 -158 118 -234 283 -242 533 -7 186 -2 190 125 107 203
-133 299 -239 359 -399 44 -118 58 -102 57 65 0 193 -47 275 -219 387 -211
137 -312 318 -322 575 -9 211 1 221 145 126 179 -118 297 -259 343 -410 35
-118 67 -80 55 65 -7 81 -19 114 -74 212 -99 173 -89 320 39 575 32 65 33 66
37 240 3 139 7 179 20 193 21 24 58 21 76 -5z m-226 -5322 c75 -35 143 -105
166 -173 25 -74 27 -73 -71 -73 -88 0 -88 0 -110 50 -69 157 -353 113 -353
-54 0 -98 18 -110 285 -182 262 -70 359 -210 277 -398 -122 -275 -683 -255
-767 27 -29 96 -28 97 74 97 88 0 88 0 95 -42 31 -192 410 -191 424 1 8 105
-20 126 -240 181 -291 72 -391 183 -339 376 51 191 341 289 559 190z m-728
-491 c0 -515 0 -515 -85 -515 -85 0 -85 0 -85 50 0 60 -14 64 -53 15 -85 -106
-272 -109 -389 -6 -182 159 -143 549 65 650 126 61 283 33 335 -60 37 -63 42
-40 42 176 0 205 0 205 85 205 85 0 85 0 85 -515z m3320 220 c0 -250 2 -295
14 -295 8 0 72 65 141 145 127 145 127 145 232 145 105 0 105 0 5 -107 -55
-60 -109 -117 -121 -127 -34 -31 -26 -54 75 -216 196 -316 187 -281 71 -278
-101 3 -101 3 -196 166 -108 184 -108 184 -175 112 -46 -49 -46 -49 -46 -165
0 -115 0 -115 -85 -115 -85 0 -85 0 -85 515 0 515 0 515 85 515 85 0 85 0 85
-295z m-5830 210 c0 -75 0 -75 -235 -75 -235 0 -235 0 -235 -155 0 -155 0
-155 210 -155 210 0 210 0 210 -70 0 -70 0 -70 -210 -70 -210 0 -210 0 -210
-210 0 -210 0 -210 -90 -210 -90 0 -90 0 -90 510 0 510 0 510 325 510 325 0
325 0 325 -75z m3810 -115 c0 -100 0 -100 75 -100 75 0 75 0 75 -65 0 -65 0
-65 -75 -65 -75 0 -75 0 -75 -224 0 -256 -4 -245 90 -253 60 -6 60 -6 60 -69
0 -64 0 -64 -97 -64 -209 0 -227 28 -231 363 -3 247 -3 247 -58 247 -54 0 -54
0 -54 65 0 65 0 65 55 65 55 0 55 0 55 100 0 100 0 100 90 100 90 0 90 0 90
-100z m-3246 -107 c165 -58 261 -216 242 -401 -47 -455 -695 -457 -743 -1 -30
290 230 498 501 402z m869 -3 c239 -90 308 -450 121 -636 -167 -167 -476 -128
-581 73 -177 337 113 693 460 563z m3033 19 c451 -83 389 -754 -71 -754 -489
0 -498 736 -9 764 11 0 47 -4 80 -10z m896 -19 c84 -32 148 -101 174 -187 13
-43 13 -43 -69 -43 -83 0 -83 0 -95 33 -30 83 -154 118 -232 65 -120 -82 -121
-364 -1 -445 84 -57 211 -17 242 74 11 36 11 36 86 30 92 -7 88 -3 64 -68 -84
-223 -420 -269 -571 -78 -246 311 43 756 402 619z m1460 9 c128 -33 223 -166
244 -341 6 -58 6 -58 -265 -58 -297 0 -303 -2 -257 -111 49 -116 271 -142 326
-38 21 39 181 27 167 -13 -94 -254 -535 -242 -654 18 -139 304 121 626 439
543z m798 -69 c0 -80 0 -80 -63 -80 -165 0 -191 -46 -195 -352 -3 -228 -3
-228 -88 -228 -84 0 -84 0 -84 365 0 365 0 365 80 365 80 0 80 0 80 -70 0 -78
17 -95 40 -40 27 65 112 117 193 119 37 1 37 1 37 -79z m-7714 -1251 c13 -12
24 -26 24 -31 0 -16 -22 -8 -40 15 -24 29 -106 30 -127 2 -32 -45 -8 -77 78
-101 93 -26 122 -81 72 -136 -47 -52 -193 -27 -193 32 0 17 18 11 44 -15 49
-49 136 -29 136 30 0 40 -23 60 -84 71 -60 11 -100 52 -91 93 15 69 124 93
181 40z m391 0 c53 -50 69 -132 39 -202 -53 -125 -230 -92 -251 47 -21 137
120 240 212 155z m4703 16 c42 -21 70 -67 77 -124 19 -163 -177 -243 -249
-100 -66 128 54 285 172 224z m-4300 -5 c0 -6 -33 -10 -80 -10 -80 0 -80 0
-80 -55 0 -55 0 -55 70 -55 56 0 70 -3 70 -15 0 -12 -14 -15 -70 -15 -70 0
-70 0 -70 -70 0 -56 -3 -70 -15 -70 -13 0 -15 23 -15 150 0 150 0 150 95 150
57 0 95 -4 95 -10z m370 0 c0 -5 -22 -10 -50 -10 -50 0 -50 0 -50 -140 0 -117
-2 -140 -15 -140 -12 0 -15 24 -17 138 -3 137 -3 137 -50 140 -95 6 -46 22 67
22 70 0 115 -4 115 -10z m179 -102 c32 -164 51 -196 64 -112 21 127 50 224 68
224 20 0 26 -17 55 -158 25 -127 41 -122 70 23 13 61 23 116 23 123 1 10 31
19 31 9 0 -2 -14 -59 -30 -128 -17 -68 -33 -134 -35 -146 -6 -28 -41 -31 -49
-5 -14 48 -46 196 -46 213 0 12 -7 19 -20 19 -13 0 -20 -7 -20 -20 0 -58 -53
-230 -71 -230 -20 0 -18 -4 -63 177 -30 118 -31 123 -12 123 9 0 20 -35 35
-112z m581 80 c32 -91 90 -261 90 -264 0 -23 -32 5 -41 36 -12 40 -12 40 -84
40 -72 0 -72 0 -84 -40 -6 -22 -18 -40 -26 -40 -10 0 0 40 37 150 55 166 81
193 108 118z m435 7 c32 -31 32 -69 0 -101 -30 -30 -30 -28 -5 -62 27 -37 38
-112 17 -112 -10 0 -17 14 -22 43 -12 72 -27 87 -90 87 -55 0 -55 0 -55 -65 0
-51 -3 -65 -15 -65 -13 0 -15 23 -15 150 0 150 0 150 80 150 73 0 83 -3 105
-25z m385 15 c0 -6 -33 -10 -80 -10 -80 0 -80 0 -80 -55 0 -55 0 -55 70 -55
56 0 70 -3 70 -15 0 -12 -14 -15 -70 -15 -70 0 -70 0 -70 -55 0 -55 0 -55 80
-55 64 0 80 -3 80 -15 0 -12 -18 -15 -100 -15 -100 0 -100 0 -100 150 0 150 0
150 100 150 60 0 100 -4 100 -10z m545 -20 c117 -109 44 -270 -122 -270 -63 0
-63 0 -63 151 0 151 0 151 79 148 68 -4 83 -8 106 -29z m405 20 c0 -6 -33 -10
-80 -10 -80 0 -80 0 -80 -55 0 -55 0 -55 76 -55 103 0 99 -24 -4 -28 -72 -3
-72 -3 -72 -57 0 -55 0 -55 80 -55 64 0 80 -3 80 -15 0 -12 -17 -15 -95 -15
-95 0 -95 0 -95 150 0 150 0 150 95 150 57 0 95 -4 95 -10z m215 -123 c37
-116 58 -151 70 -114 2 6 20 65 40 130 23 76 41 117 50 117 10 0 0 -39 -37
-150 -69 -206 -76 -206 -146 1 -43 124 -48 150 -34 147 12 -2 28 -39 57 -131z
m515 123 c0 -6 -33 -10 -80 -10 -80 0 -80 0 -80 -55 0 -55 0 -55 75 -55 60 0
75 -3 75 -15 0 -12 -15 -15 -75 -15 -75 0 -75 0 -75 -55 0 -55 0 -55 85 -55
69 0 85 -3 85 -15 0 -12 -18 -15 -100 -15 -100 0 -100 0 -100 150 0 150 0 150
95 150 57 0 95 -4 95 -10z m200 -125 c0 -135 0 -135 80 -135 64 0 80 -3 80
-15 0 -12 -17 -15 -95 -15 -95 0 -95 0 -95 150 0 127 2 150 15 150 13 0 15
-22 15 -135z m880 118 c91 -62 32 -163 -95 -163 -45 0 -45 0 -45 -60 0 -47 -3
-60 -15 -60 -13 0 -15 23 -15 150 0 150 0 150 73 150 52 0 80 -5 97 -17z m302
-100 c46 -154 53 -154 101 -3 41 129 77 165 91 93 16 -84 18 -273 3 -273 -12
0 -16 24 -22 130 -10 165 -19 165 -69 0 -40 -132 -55 -153 -74 -102 -16 39
-48 140 -61 190 -19 70 -41 56 -41 -27 0 -116 -11 -191 -28 -191 -15 0 -15 15
5 233 5 65 6 67 33 67 26 0 28 -5 62 -117z m568 107 c0 -6 -31 -10 -74 -10
-86 0 -86 0 -79 -63 6 -47 6 -47 74 -47 55 0 69 -3 69 -15 0 -12 -14 -15 -70
-15 -70 0 -70 0 -70 -55 0 -55 0 -55 80 -55 64 0 80 -3 80 -15 0 -12 -18 -15
-100 -15 -100 0 -100 0 -100 150 0 150 0 150 95 150 57 0 95 -4 95 -10z m280
-110 c83 -153 90 -153 90 0 0 100 3 120 15 120 13 0 15 -23 15 -151 0 -200
-11 -201 -114 -17 -91 163 -96 163 -96 -2 0 -109 -2 -130 -15 -130 -13 0 -15
23 -15 150 0 150 0 150 28 150 24 0 33 -12 92 -120z m510 110 c0 -5 -25 -10
-55 -10 -55 0 -55 0 -55 -140 0 -118 -2 -140 -15 -140 -13 0 -15 22 -15 140 0
140 0 140 -50 140 -27 0 -50 5 -50 10 0 6 47 10 120 10 73 0 120 -4 120 -10z" />
    <path d="M3754 3556 c-144 -63 -141 -404 4 -468 156 -69 267 28 267 233 0 203
-115 302 -271 235z" />
    <path d="M2032 3553 c-159 -78 -122 -442 49 -473 153 -29 234 59 233 250 -1
199 -127 300 -282 223z" />
    <path d="M2879 3547 c-112 -75 -120 -351 -13 -436 58 -45 158 -50 224 -10 116
71 110 380 -9 447 -55 31 -155 31 -202 -1z" />
    <path d="M6010 3563 c-141 -51 -152 -400 -15 -468 182 -90 330 88 276 331 -26
114 -148 178 -261 137z" />
    <path d="M8325 3566 c-41 -18 -82 -68 -95 -114 -18 -65 -27 -62 171 -62 182 0
182 0 175 41 -20 123 -139 187 -251 135z" />
    <path d="M1860 2368 c-57 -30 -72 -170 -24 -227 53 -64 154 -32 170 54 23 125
-56 220 -146 173z" />
    <path d="M6604 2373 c-58 -11 -91 -115 -64 -197 33 -102 165 -88 191 21 26
112 -34 195 -127 176z" />
    <path d="M3452 2286 c-30 -101 -31 -98 31 -90 28 4 53 8 55 9 8 6 -43 155 -53
155 -7 0 -22 -33 -33 -74z" />
    <path d="M3800 2310 c0 -60 0 -60 64 -60 70 0 76 5 76 65 0 42 -20 55 -89 55
-51 0 -51 0 -51 -60z" />
    <path d="M4740 2246 c0 -126 0 -126 55 -126 159 0 159 235 1 248 -56 4 -56 4
-56 -122z" />
    <path d="M6960 2305 c0 -65 0 -65 61 -65 70 0 88 14 89 66 0 46 -26 64 -93 64
-57 0 -57 0 -57 -65z" />
  </g>
  <g transform="translate(0.000000,1024.000000) scale(0.100000,-0.100000)" fill="#17344d" stroke="none">
    <path d="M3771 8195 c-259 -225 -254 -204 -106 -410 75 -105 74 -102 16 -198
-53 -88 -90 -165 -148 -310 -45 -112 -49 -114 -219 -131 -235 -24 -225 -11
-249 -299 -32 -375 -38 -360 185 -416 179 -46 180 -46 205 -158 22 -98 78
-259 116 -335 43 -86 41 -92 -70 -231 -156 -196 -157 -182 13 -357 67 -69 154
-162 194 -207 108 -120 100 -120 299 8 141 91 142 92 228 39 112 -69 206 -112
340 -156 153 -51 148 -45 168 -180 41 -262 22 -248 351 -252 373 -5 366 -10
406 275 16 108 15 107 161 157 126 43 262 106 353 165 68 43 75 41 206 -44
209 -137 174 -146 428 116 251 260 246 239 106 414 -136 170 -132 159 -90 253
58 130 66 153 106 290 40 137 55 167 93 175 353 80 333 51 298 435 -27 294
-16 281 -243 308 -163 19 -172 24 -213 130 -45 114 -105 239 -153 317 -54 87
-55 83 34 216 121 181 126 166 -122 382 -236 205 -224 202 -355 93 -52 -44
-122 -101 -157 -128 -62 -49 -62 -49 -62 -130 0 -45 -7 -108 -15 -141 -19 -81
-19 -90 8 -102 44 -20 194 -152 256 -225 539 -633 420 -1542 -266 -2034 -361
-259 -934 -299 -1346 -93 -944 471 -1040 1747 -178 2352 24 16 24 17 11 74 -7
32 -16 103 -19 158 -6 107 -14 116 -254 300 -95 73 -94 73 -316 -120z" />
    <path d="M4576 3995 c-149 -42 -234 -164 -224 -320 11 -160 84 -220 346 -285
215 -54 249 -77 240 -171 -18 -180 -356 -176 -402 4 -7 27 -15 48 -19 47 -4 0
-47 0 -97 0 -90 0 -90 0 -90 -33 0 -404 785 -416 827 -13 17 162 -75 259 -302
320 -261 71 -285 85 -285 172 0 156 268 192 333 44 22 -50 22 -50 120 -50 111
0 112 1 81 93 -55 162 -309 255 -528 192z" />
    <path d="M1030 3473 c0 -523 0 -523 100 -523 100 0 100 0 100 210 0 211 0 211
210 208 211 -3 211 -3 208 80 -3 84 -3 84 -210 84 -208 0 -208 0 -208 144 0
144 0 144 235 144 235 0 235 0 235 85 0 84 0 84 -335 87 -335 3 -335 3 -335
-519z" />
    <path d="M4020 3793 c0 -208 0 -208 -20 -176 -81 133 -321 129 -444 -8 -136
-152 -125 -471 22 -600 120 -106 320 -102 411 8 31 38 31 38 31 -15 0 -52 0
-52 95 -52 95 0 95 0 95 525 0 525 0 525 -95 525 -95 0 -95 0 -95 -207z m-100
-252 c127 -67 134 -372 10 -436 -170 -88 -310 76 -261 305 27 126 145 188 251
131z" />
    <path d="M7340 3475 c0 -525 0 -525 98 -525 97 0 97 0 94 115 -3 115 -3 115
44 165 60 64 46 74 154 -111 108 -186 87 -170 223 -167 106 3 106 3 78 48
-215 338 -262 422 -242 434 4 3 63 64 131 136 122 130 122 130 -3 130 -125 0
-125 0 -254 -147 -128 -147 -128 -147 -131 150 -2 297 -2 297 -97 297 -95 0
-95 0 -95 -525z" />
    <path d="M5310 3800 c0 -100 0 -100 -55 -100 -55 0 -55 0 -55 -75 0 -75 0 -75
54 -75 55 0 55 0 58 -247 4 -348 19 -368 281 -364 67 1 67 1 67 75 0 73 0 73
-60 79 -94 8 -90 -2 -90 243 0 214 0 214 75 214 75 0 75 0 75 75 0 75 0 75
-75 75 -75 0 -75 0 -75 100 0 100 0 100 -100 100 -100 0 -100 0 -100 -100z" />
    <path d="M2039 3710 c-234 -40 -362 -304 -269 -552 112 -301 597 -304 709 -5
120 323 -109 613 -440 557z m184 -175 c143 -98 101 -417 -60 -444 -162 -28
-266 150 -203 346 38 115 167 163 263 98z" />
    <path d="M2890 3710 c-342 -72 -402 -601 -84 -747 276 -126 549 51 549 357 0
278 -200 445 -465 390z m181 -172 c114 -64 124 -352 15 -423 -144 -94 -280 8
-281 210 0 194 123 293 266 213z" />
    <path d="M5999 3710 c-244 -41 -369 -337 -249 -586 144 -296 613 -247 706 72
89 306 -143 567 -457 514z m170 -165 c128 -66 138 -338 16 -431 -159 -121
-336 98 -261 323 35 105 152 157 245 108z" />
    <path d="M6843 3710 c-277 -58 -389 -423 -203 -659 158 -200 522 -142 596 94
22 68 23 66 -79 72 -85 6 -85 6 -96 -30 -30 -90 -143 -127 -222 -74 -119 80
-118 344 1 425 75 51 173 21 212 -66 14 -31 24 -42 35 -38 8 3 48 6 90 6 75 0
75 0 68 33 -35 168 -217 276 -402 237z" />
    <path d="M8330 3711 c-393 -72 -407 -681 -18 -771 193 -44 438 79 438 221 0
20 -189 10 -200 -10 -54 -102 -258 -76 -306 38 -39 93 -45 91 257 91 272 0
272 0 265 68 -25 258 -202 405 -436 363z m176 -172 c31 -28 49 -62 59 -106 7
-33 7 -33 -164 -33 -189 0 -187 -1 -146 80 45 87 185 121 251 59z" />
    <path d="M9195 3699 c-42 -12 -102 -64 -125 -107 -19 -37 -19 -37 -20 36 0 72
0 72 -90 72 -90 0 -90 0 -90 -375 0 -375 0 -375 94 -375 95 0 95 0 98 228 4
306 30 352 195 352 63 0 63 0 63 90 0 96 -21 110 -125 79z" />
    <path d="M1447 2395 c-84 -47 -55 -142 52 -170 63 -16 81 -30 81 -61 0 -47
-75 -60 -116 -19 -22 22 -74 35 -74 20 0 -72 141 -118 208 -68 76 56 47 133
-62 169 -83 27 -98 43 -73 78 20 27 85 26 107 -2 22 -27 60 -30 60 -4 0 55
-120 92 -183 57z" />
    <path d="M1832 2390 c-126 -79 -75 -310 69 -312 94 -2 141 47 147 151 8 142
-109 229 -216 161z m136 -54 c43 -42 41 -148 -3 -192 -63 -62 -145 -9 -145 94
0 117 77 168 148 98z" />
    <path d="M3064 2402 c-21 -3 -49 -92 -71 -227 -8 -51 -16 -32 -43 108 -23 117
-23 117 -52 117 -23 0 -28 -4 -24 -17 3 -10 17 -65 31 -123 48 -193 43 -180
74 -180 28 0 81 151 81 230 0 11 5 20 10 20 6 0 10 -9 10 -19 0 -17 32 -165
46 -213 8 -28 62 -24 69 5 2 12 18 78 35 146 36 151 36 151 5 151 -14 0 -25
-3 -25 -7 0 -13 -41 -217 -47 -233 -3 -8 -18 40 -32 108 -29 131 -34 140 -67
134z" />
    <path d="M5417 2404 c-2 -2 21 -76 51 -164 55 -160 55 -160 88 -160 32 0 32 0
83 153 59 176 59 176 26 169 -22 -4 -29 -17 -61 -121 -19 -64 -38 -123 -41
-131 -2 -8 -24 43 -47 114 -40 125 -70 168 -99 140z" />
    <path d="M5918 2402 c-98 -3 -98 -3 -98 -162 0 -160 0 -160 110 -160 110 0
110 0 110 25 0 25 -1 25 -85 25 -85 0 -85 0 -85 45 0 45 0 45 75 45 73 0 75 1
75 25 0 24 -2 25 -75 25 -75 0 -75 0 -75 45 0 45 0 45 80 45 73 0 80 2 80 19
0 26 -1 26 -112 23z" />
    <path d="M6559 2387 c-90 -60 -94 -227 -7 -291 65 -47 172 -16 210 62 73 151
-73 316 -203 229z m136 -47 c62 -68 21 -220 -60 -220 -65 0 -104 65 -91 153
13 83 101 122 151 67z" />
    <path d="M7334 2402 c-35 -3 -34 0 -50 -224 -7 -98 -7 -98 18 -98 28 0 37 46
39 194 0 80 4 76 43 -54 60 -194 76 -195 133 -8 40 132 40 132 48 0 7 -132 7
-132 32 -132 26 0 26 0 19 133 -9 184 -10 187 -51 187 -34 0 -34 0 -74 -122
-22 -68 -42 -116 -45 -108 -3 8 -19 62 -36 120 -36 119 -34 117 -76 112z" />
    <path d="M8328 2284 c-3 -123 -3 -123 -68 -4 -65 120 -65 120 -102 120 -38 0
-38 0 -38 -160 0 -160 0 -160 25 -160 27 0 31 35 25 215 -1 50 -1 50 73 -80
68 -120 76 -130 106 -133 32 -3 32 -3 29 159 -3 160 -3 162 -25 164 -22 2 -22
-1 -25 -121z" />
    <path d="M2190 2240 c0 -160 0 -160 25 -160 24 0 25 2 25 70 0 70 0 70 70 70
68 0 70 1 70 25 0 24 -2 25 -70 25 -70 0 -70 0 -70 45 0 45 0 45 80 45 73 0
80 2 80 20 0 19 -7 20 -105 20 -105 0 -105 0 -105 -160z" />
    <path d="M2513 2380 c-1 -16 6 -19 50 -22 52 -3 52 -3 52 -141 0 -137 0 -137
28 -137 27 0 27 0 27 140 0 140 0 140 50 140 43 0 50 3 50 20 0 31 -255 31
-257 0z" />
    <path d="M3401 2247 c-59 -177 -58 -167 -26 -167 20 0 26 7 36 40 12 40 12 40
74 40 62 0 62 0 74 -40 10 -35 16 -40 41 -40 31 0 27 14 -70 288 -10 27 -17
32 -45 32 -33 0 -33 0 -84 -153z m84 -38 c-50 -8 -48 -16 -22 71 21 73 21 73
42 4 21 -69 21 -69 -20 -75z" />
    <path d="M3760 2240 c0 -160 0 -160 25 -160 24 0 25 2 25 65 0 112 106 93 125
-22 6 -39 9 -43 36 -43 27 0 29 2 23 28 -17 77 -25 101 -38 111 -12 10 -10 16
10 36 72 73 15 145 -116 145 -90 0 -90 0 -90 -160z m151 110 c19 -11 25 -43
13 -74 -5 -12 -20 -16 -60 -16 -54 0 -54 0 -54 50 0 53 44 70 101 40z" />
    <path d="M4130 2240 c0 -160 0 -160 110 -160 110 0 110 0 110 25 0 25 -1 25
-80 25 -80 0 -80 0 -80 45 0 45 0 45 70 45 68 0 70 1 70 25 0 24 -2 25 -70 25
-70 0 -70 0 -70 45 0 45 0 45 80 45 73 0 80 2 80 20 0 19 -7 20 -110 20 -110
0 -110 0 -110 -160z" />
    <path d="M4690 2241 c0 -161 0 -161 73 -161 122 0 177 45 185 148 8 116 -41
165 -169 170 -89 4 -89 4 -89 -157z m175 89 c74 -70 26 -200 -72 -200 -43 0
-43 0 -43 116 0 117 0 117 46 111 28 -3 54 -13 69 -27z" />
    <path d="M5090 2240 c0 -160 0 -160 105 -160 105 0 105 0 105 25 0 25 -1 25
-80 25 -80 0 -80 0 -80 45 0 44 0 44 73 47 66 3 72 5 75 26 3 21 0 22 -72 22
-76 0 -76 0 -76 45 0 45 0 45 80 45 73 0 80 2 80 20 0 19 -7 20 -105 20 -105
0 -105 0 -105 -160z" />
    <path d="M6180 2240 c0 -160 0 -160 105 -160 105 0 105 0 105 25 0 25 -1 25
-81 25 -80 0 -80 0 -77 135 3 135 3 135 -24 135 -28 0 -28 0 -28 -160z" />
    <path d="M6920 2240 c0 -160 0 -160 25 -160 24 0 25 3 25 60 0 60 0 60 45 60
91 0 135 35 135 107 0 71 -35 93 -147 93 -83 0 -83 0 -83 -160z m162 103 c45
-41 12 -93 -61 -93 -51 0 -51 0 -51 55 0 55 0 55 47 55 29 0 53 -6 65 -17z" />
    <path d="M7770 2240 c0 -160 0 -160 110 -160 110 0 110 0 110 25 0 25 -1 25
-80 25 -80 0 -80 0 -80 45 0 45 0 45 70 45 68 0 70 1 70 25 0 24 -2 25 -69 25
-69 0 -69 0 -73 41 -5 51 -8 49 82 49 69 0 76 2 77 20 2 19 -4 20 -108 20
-109 0 -109 0 -109 -160z" />
    <path d="M8510 2380 c0 -17 7 -20 50 -20 50 0 50 0 50 -140 0 -140 0 -140 25
-140 25 0 25 0 25 140 0 140 0 140 55 140 48 0 55 2 55 20 0 19 -7 20 -130 20
-123 0 -130 -1 -130 -20z" />
  </g>
  <g transform="translate(0.000000,1024.000000) scale(0.100000,-0.100000)" fill="#f8c20e" stroke="none">
    <path d="M5068 9303 c-13 -14 -17 -54 -20 -193 -4 -174 -5 -175 -37 -240 -129
-258 -140 -419 -39 -595 55 -97 67 -131 74 -212 10 -116 -7 -140 -35 -47 -45
152 -157 288 -337 408 -162 108 -178 97 -171 -118 9 -281 103 -457 322 -599
161 -105 215 -193 223 -363 7 -156 -1 -168 -43 -65 -67 166 -154 263 -359 396
-135 88 -141 84 -141 -110 1 -258 75 -429 240 -551 257 -190 293 -242 302
-434 6 -126 -4 -156 -28 -82 -48 148 -124 255 -248 346 -261 190 -284 185
-271 -59 15 -278 94 -422 316 -578 165 -115 218 -199 229 -363 9 -128 -4 -164
-30 -83 -60 185 -159 299 -376 432 -130 81 -145 69 -141 -116 8 -341 129 -529
425 -661 83 -37 86 -40 80 -67 -5 -27 -3 -29 28 -30 34 -2 34 -2 -1 -9 -23 -5
3 -8 80 -9 78 0 110 2 100 9 -13 8 -12 10 3 10 12 0 17 8 17 30 0 28 7 33 93
76 284 143 389 309 404 637 9 207 -5 215 -173 106 -185 -121 -287 -240 -343
-399 -29 -81 -33 -72 -29 55 6 182 39 237 218 365 230 165 315 316 330 595 10
179 -13 221 -93 171 -251 -156 -372 -286 -427 -461 -25 -80 -31 -63 -28 75 4
194 52 272 254 412 197 137 282 307 291 580 7 207 1 210 -189 84 -181 -119
-261 -214 -318 -376 -37 -104 -42 -97 -38 55 4 195 55 284 212 374 211 121
321 317 333 596 10 224 -8 233 -195 100 -191 -137 -270 -238 -328 -420 -19
-60 -19 -60 -22 43 -3 113 -9 95 84 272 84 162 72 319 -43 554 -43 90 -43 90
-43 261 0 138 -3 175 -16 193 -19 27 -74 30 -96 5z" />
  </g>
</svg>